<mxfile host="app.diagrams.net" modified="2023-11-23T12:49:43.376Z" agent="Mozilla/5.0 (Windows NT 10.0; Win64; x64; rv:121.0) Gecko/20100101 Firefox/121.0" etag="Hi_7phK3492JEhu3SwSw" version="22.1.3" type="device">
  <diagram name="Page-1" id="e7e014a7-5840-1c2e-5031-d8a46d1fe8dd">
    <mxGraphModel dx="1050" dy="530" grid="1" gridSize="10" guides="1" tooltips="1" connect="1" arrows="1" fold="1" page="1" pageScale="1" pageWidth="1169" pageHeight="826" background="none" math="0" shadow="0">
      <root>
        <mxCell id="0" />
        <mxCell id="1" parent="0" />
        <mxCell id="2" value="Parent" style="swimlane;whiteSpace=wrap" parent="1" vertex="1">
          <mxGeometry x="164.5" y="128" width="280" height="832" as="geometry" />
        </mxCell>
        <mxCell id="5" value="" style="ellipse;shape=startState;fillColor=#000000;strokeColor=#ff0000;" parent="2" vertex="1">
          <mxGeometry x="100" y="40" width="30" height="30" as="geometry" />
        </mxCell>
        <mxCell id="6" value="" style="edgeStyle=elbowEdgeStyle;elbow=horizontal;verticalAlign=bottom;endArrow=open;endSize=8;strokeColor=#FF0000;endFill=1;rounded=0;entryX=0.45;entryY=-0.079;entryDx=0;entryDy=0;entryPerimeter=0;" parent="2" source="5" target="XixWrvRE4xo1DPfBGrpG-43" edge="1">
          <mxGeometry x="100" y="40" as="geometry">
            <mxPoint x="115.5" y="110" as="targetPoint" />
          </mxGeometry>
        </mxCell>
        <mxCell id="XixWrvRE4xo1DPfBGrpG-41" value="Parent making&lt;br&gt;the application" style="shape=umlActor;verticalLabelPosition=bottom;verticalAlign=top;html=1;" vertex="1" parent="2">
          <mxGeometry x="155.5" y="32" width="30" height="60" as="geometry" />
        </mxCell>
        <mxCell id="XixWrvRE4xo1DPfBGrpG-45" style="edgeStyle=orthogonalEdgeStyle;rounded=0;orthogonalLoop=1;jettySize=auto;html=1;exitX=0.5;exitY=1;exitDx=0;exitDy=0;" edge="1" parent="2" source="XixWrvRE4xo1DPfBGrpG-43" target="XixWrvRE4xo1DPfBGrpG-44">
          <mxGeometry relative="1" as="geometry" />
        </mxCell>
        <mxCell id="XixWrvRE4xo1DPfBGrpG-43" value="Chooses a school" style="html=1;whiteSpace=wrap;" vertex="1" parent="2">
          <mxGeometry x="65.5" y="132" width="110" height="50" as="geometry" />
        </mxCell>
        <mxCell id="XixWrvRE4xo1DPfBGrpG-48" style="edgeStyle=orthogonalEdgeStyle;rounded=0;orthogonalLoop=1;jettySize=auto;html=1;exitX=0.5;exitY=1;exitDx=0;exitDy=0;" edge="1" parent="2" source="XixWrvRE4xo1DPfBGrpG-44" target="XixWrvRE4xo1DPfBGrpG-47">
          <mxGeometry relative="1" as="geometry" />
        </mxCell>
        <mxCell id="XixWrvRE4xo1DPfBGrpG-44" value="Completes the data of his child" style="html=1;whiteSpace=wrap;" vertex="1" parent="2">
          <mxGeometry x="65.5" y="235" width="110" height="50" as="geometry" />
        </mxCell>
        <mxCell id="XixWrvRE4xo1DPfBGrpG-47" value="Sends the application data" style="html=1;whiteSpace=wrap;" vertex="1" parent="2">
          <mxGeometry x="65.5" y="322" width="110" height="50" as="geometry" />
        </mxCell>
        <mxCell id="XixWrvRE4xo1DPfBGrpG-90" value="" style="ellipse;html=1;shape=endState;fillColor=#000000;strokeColor=#ff0000;" vertex="1" parent="2">
          <mxGeometry x="100" y="542" width="30" height="30" as="geometry" />
        </mxCell>
        <mxCell id="XixWrvRE4xo1DPfBGrpG-98" style="edgeStyle=orthogonalEdgeStyle;rounded=0;orthogonalLoop=1;jettySize=auto;html=1;exitX=0.25;exitY=0.5;exitDx=0;exitDy=0;exitPerimeter=0;entryX=0.25;entryY=0;entryDx=0;entryDy=0;" edge="1" parent="2" source="XixWrvRE4xo1DPfBGrpG-93" target="XixWrvRE4xo1DPfBGrpG-97">
          <mxGeometry relative="1" as="geometry" />
        </mxCell>
        <mxCell id="XixWrvRE4xo1DPfBGrpG-93" value="" style="shape=line;html=1;strokeWidth=6;strokeColor=#ff0000;rotation=90;" vertex="1" parent="2">
          <mxGeometry x="142.25" y="613.08" width="56.5" height="7.85" as="geometry" />
        </mxCell>
        <mxCell id="XixWrvRE4xo1DPfBGrpG-97" value="Parent declines enrollment" style="html=1;whiteSpace=wrap;" vertex="1" parent="2">
          <mxGeometry x="15.5" y="672" width="110" height="50" as="geometry" />
        </mxCell>
        <mxCell id="XixWrvRE4xo1DPfBGrpG-101" value="Parent confirms enrollement" style="html=1;whiteSpace=wrap;" vertex="1" parent="2">
          <mxGeometry x="145.5" y="672" width="110" height="50" as="geometry" />
        </mxCell>
        <mxCell id="XixWrvRE4xo1DPfBGrpG-102" style="edgeStyle=orthogonalEdgeStyle;rounded=0;orthogonalLoop=1;jettySize=auto;html=1;exitX=0.75;exitY=0.5;exitDx=0;exitDy=0;exitPerimeter=0;entryX=0.1;entryY=0.04;entryDx=0;entryDy=0;entryPerimeter=0;" edge="1" parent="2" source="XixWrvRE4xo1DPfBGrpG-93" target="XixWrvRE4xo1DPfBGrpG-101">
          <mxGeometry relative="1" as="geometry">
            <Array as="points">
              <mxPoint x="156" y="631" />
            </Array>
          </mxGeometry>
        </mxCell>
        <mxCell id="XixWrvRE4xo1DPfBGrpG-105" value="" style="ellipse;html=1;shape=endState;fillColor=#000000;strokeColor=#ff0000;" vertex="1" parent="2">
          <mxGeometry x="55.5" y="752" width="30" height="30" as="geometry" />
        </mxCell>
        <mxCell id="XixWrvRE4xo1DPfBGrpG-106" style="edgeStyle=orthogonalEdgeStyle;rounded=0;orthogonalLoop=1;jettySize=auto;html=1;exitX=0.5;exitY=1;exitDx=0;exitDy=0;entryX=0.533;entryY=0.168;entryDx=0;entryDy=0;entryPerimeter=0;" edge="1" parent="2" source="XixWrvRE4xo1DPfBGrpG-97" target="XixWrvRE4xo1DPfBGrpG-105">
          <mxGeometry relative="1" as="geometry" />
        </mxCell>
        <mxCell id="3" value="Principal" style="swimlane;whiteSpace=wrap" parent="1" vertex="1">
          <mxGeometry x="445" y="128" width="285" height="832" as="geometry" />
        </mxCell>
        <mxCell id="XixWrvRE4xo1DPfBGrpG-49" value="Principal sees the application" style="html=1;whiteSpace=wrap;" vertex="1" parent="3">
          <mxGeometry x="85" y="322" width="110" height="50" as="geometry" />
        </mxCell>
        <mxCell id="XixWrvRE4xo1DPfBGrpG-72" style="edgeStyle=orthogonalEdgeStyle;rounded=0;orthogonalLoop=1;jettySize=auto;html=1;exitX=0.75;exitY=0.5;exitDx=0;exitDy=0;exitPerimeter=0;" edge="1" parent="3" source="XixWrvRE4xo1DPfBGrpG-56" target="XixWrvRE4xo1DPfBGrpG-71">
          <mxGeometry relative="1" as="geometry" />
        </mxCell>
        <mxCell id="XixWrvRE4xo1DPfBGrpG-56" value="" style="shape=line;html=1;strokeWidth=6;strokeColor=#ff0000;" vertex="1" parent="3">
          <mxGeometry x="109.5" y="392" width="60" height="30" as="geometry" />
        </mxCell>
        <mxCell id="XixWrvRE4xo1DPfBGrpG-63" style="edgeStyle=orthogonalEdgeStyle;rounded=0;orthogonalLoop=1;jettySize=auto;html=1;entryX=0.532;entryY=0.441;entryDx=0;entryDy=0;entryPerimeter=0;" edge="1" parent="3" source="XixWrvRE4xo1DPfBGrpG-49" target="XixWrvRE4xo1DPfBGrpG-56">
          <mxGeometry relative="1" as="geometry" />
        </mxCell>
        <mxCell id="XixWrvRE4xo1DPfBGrpG-70" value="Declines application" style="html=1;whiteSpace=wrap;" vertex="1" parent="3">
          <mxGeometry x="15" y="472" width="110" height="50" as="geometry" />
        </mxCell>
        <mxCell id="XixWrvRE4xo1DPfBGrpG-69" style="edgeStyle=orthogonalEdgeStyle;rounded=0;orthogonalLoop=1;jettySize=auto;html=1;exitX=0.25;exitY=0.5;exitDx=0;exitDy=0;exitPerimeter=0;" edge="1" parent="3" source="XixWrvRE4xo1DPfBGrpG-56" target="XixWrvRE4xo1DPfBGrpG-70">
          <mxGeometry relative="1" as="geometry">
            <mxPoint x="115" y="472" as="targetPoint" />
          </mxGeometry>
        </mxCell>
        <mxCell id="XixWrvRE4xo1DPfBGrpG-71" value="Accepts application" style="html=1;whiteSpace=wrap;" vertex="1" parent="3">
          <mxGeometry x="155" y="472" width="110" height="50" as="geometry" />
        </mxCell>
        <mxCell id="XixWrvRE4xo1DPfBGrpG-73" value="Application status set to rejected" style="html=1;whiteSpace=wrap;" vertex="1" parent="3">
          <mxGeometry x="-55" y="532" width="110" height="50" as="geometry" />
        </mxCell>
        <mxCell id="XixWrvRE4xo1DPfBGrpG-74" style="edgeStyle=orthogonalEdgeStyle;rounded=0;orthogonalLoop=1;jettySize=auto;html=1;" edge="1" parent="3" source="XixWrvRE4xo1DPfBGrpG-70" target="XixWrvRE4xo1DPfBGrpG-73">
          <mxGeometry relative="1" as="geometry">
            <Array as="points">
              <mxPoint x="70" y="542" />
              <mxPoint x="-10" y="542" />
            </Array>
          </mxGeometry>
        </mxCell>
        <mxCell id="XixWrvRE4xo1DPfBGrpG-75" value="Application status set to accepted" style="html=1;whiteSpace=wrap;" vertex="1" parent="3">
          <mxGeometry x="-55" y="592" width="110" height="50" as="geometry" />
        </mxCell>
        <mxCell id="XixWrvRE4xo1DPfBGrpG-76" style="edgeStyle=orthogonalEdgeStyle;rounded=0;orthogonalLoop=1;jettySize=auto;html=1;exitX=0.25;exitY=1;exitDx=0;exitDy=0;entryX=1;entryY=0.5;entryDx=0;entryDy=0;" edge="1" parent="3" source="XixWrvRE4xo1DPfBGrpG-71" target="XixWrvRE4xo1DPfBGrpG-75">
          <mxGeometry relative="1" as="geometry" />
        </mxCell>
        <mxCell id="XixWrvRE4xo1DPfBGrpG-110" style="edgeStyle=orthogonalEdgeStyle;rounded=0;orthogonalLoop=1;jettySize=auto;html=1;exitX=0.5;exitY=1;exitDx=0;exitDy=0;entryX=0.5;entryY=0;entryDx=0;entryDy=0;" edge="1" parent="3" source="XixWrvRE4xo1DPfBGrpG-107" target="XixWrvRE4xo1DPfBGrpG-109">
          <mxGeometry relative="1" as="geometry" />
        </mxCell>
        <mxCell id="XixWrvRE4xo1DPfBGrpG-107" value="Principal assigns student to a class" style="html=1;whiteSpace=wrap;" vertex="1" parent="3">
          <mxGeometry x="75" y="672" width="110" height="50" as="geometry" />
        </mxCell>
        <mxCell id="XixWrvRE4xo1DPfBGrpG-109" value="" style="ellipse;html=1;shape=endState;fillColor=#000000;strokeColor=#ff0000;" vertex="1" parent="3">
          <mxGeometry x="115" y="752" width="30" height="30" as="geometry" />
        </mxCell>
        <mxCell id="XixWrvRE4xo1DPfBGrpG-80" style="edgeStyle=orthogonalEdgeStyle;rounded=0;orthogonalLoop=1;jettySize=auto;html=1;entryX=0;entryY=0.5;entryDx=0;entryDy=0;" edge="1" parent="1" source="XixWrvRE4xo1DPfBGrpG-47" target="XixWrvRE4xo1DPfBGrpG-49">
          <mxGeometry relative="1" as="geometry">
            <mxPoint x="403" y="480.98" as="targetPoint" />
          </mxGeometry>
        </mxCell>
        <mxCell id="XixWrvRE4xo1DPfBGrpG-78" style="edgeStyle=orthogonalEdgeStyle;rounded=0;orthogonalLoop=1;jettySize=auto;html=1;entryX=0.454;entryY=0.214;entryDx=0;entryDy=0;entryPerimeter=0;" edge="1" parent="1" source="XixWrvRE4xo1DPfBGrpG-75" target="XixWrvRE4xo1DPfBGrpG-93">
          <mxGeometry relative="1" as="geometry">
            <mxPoint x="285" y="740" as="targetPoint" />
          </mxGeometry>
        </mxCell>
        <mxCell id="XixWrvRE4xo1DPfBGrpG-96" style="edgeStyle=orthogonalEdgeStyle;rounded=0;orthogonalLoop=1;jettySize=auto;html=1;entryX=1;entryY=0.5;entryDx=0;entryDy=0;" edge="1" parent="1" source="XixWrvRE4xo1DPfBGrpG-73" target="XixWrvRE4xo1DPfBGrpG-90">
          <mxGeometry relative="1" as="geometry" />
        </mxCell>
        <mxCell id="XixWrvRE4xo1DPfBGrpG-108" style="edgeStyle=orthogonalEdgeStyle;rounded=0;orthogonalLoop=1;jettySize=auto;html=1;entryX=0;entryY=0.5;entryDx=0;entryDy=0;" edge="1" parent="1" source="XixWrvRE4xo1DPfBGrpG-101" target="XixWrvRE4xo1DPfBGrpG-107">
          <mxGeometry relative="1" as="geometry" />
        </mxCell>
      </root>
    </mxGraphModel>
  </diagram>
</mxfile>
